<svg width="1024" height="1024" viewBox="0 0 1024 1024" fill="none" xmlns="http://www.w3.org/2000/svg">
<g filter="url(#filter0_dddd_230_292)">
<rect x="100" y="100" width="824" height="824" rx="189" fill="#FF4000"/>
<path d="M606.656 321.381C606.779 321.381 606.878 321.481 606.878 321.603V359.284C606.878 359.406 606.779 359.506 606.656 359.506H588.024C587.902 359.506 587.803 359.605 587.803 359.727V626.375C587.803 668.502 553.658 702.623 511.501 702.623C469.345 702.623 435.2 668.502 435.2 626.375V359.727C435.2 359.605 435.1 359.506 434.978 359.506H416.346C416.224 359.506 416.124 359.406 416.124 359.284V321.603C416.124 321.481 416.224 321.381 416.346 321.381H606.656ZM549.652 474.1C549.652 473.977 549.553 473.878 549.43 473.878H473.572C473.45 473.878 473.35 473.977 473.35 474.1V626.375C473.35 636.486 477.366 646.183 484.529 653.333C491.682 660.483 501.382 664.499 511.501 664.499C521.621 664.499 531.321 660.483 538.474 653.333C545.637 646.183 549.652 636.486 549.652 626.375V474.1ZM530.577 569.189C535.632 569.189 540.486 571.197 544.063 574.772C547.639 578.347 549.652 583.196 549.652 588.251C549.652 593.306 547.639 598.155 544.063 601.73C540.486 605.305 535.632 607.313 530.577 607.313C525.522 607.313 520.667 605.305 517.09 601.73C513.514 598.155 511.501 593.306 511.501 588.251C511.501 583.196 513.514 578.347 517.09 574.772C520.667 571.197 525.522 569.189 530.577 569.189ZM492.426 512.002C497.481 512.002 502.335 514.011 505.912 517.586C509.489 521.161 511.501 526.009 511.501 531.065C511.501 536.12 509.489 540.968 505.912 544.543C502.335 548.118 497.481 550.127 492.426 550.127C487.371 550.127 482.516 548.118 478.939 544.543C475.363 540.968 473.35 536.12 473.35 531.065C473.35 526.009 475.363 521.161 478.939 517.586C482.516 514.011 487.371 512.002 492.426 512.002ZM549.652 359.727C549.652 359.605 549.553 359.506 549.43 359.506H473.572C473.45 359.506 473.35 359.605 473.35 359.727V435.532C473.35 435.655 473.45 435.754 473.572 435.754H549.43C549.553 435.754 549.652 435.655 549.652 435.532V359.727Z" fill="white"/>
<path d="M358.744 746C358.868 746.003 358.973 745.903 358.973 745.779V687.855C358.973 687.736 358.876 687.638 358.758 687.633C320.523 685.892 301.682 663.671 301.682 625.945V587.593C301.682 540.815 285.324 519.646 256.928 512.218C256.705 512.16 256.704 511.836 256.927 511.777C284.785 504.378 301.682 484.826 301.682 436.406V398.053C301.682 360.326 320.524 338.659 358.761 336.368C358.878 336.361 358.973 336.264 358.973 336.146V278.221C358.973 278.096 358.867 277.996 358.742 278C284.895 280.304 236.604 322.549 236.604 408.058V441.964C236.604 465.865 227.148 482.54 208.793 482.54H196.222C196.099 482.54 196 482.639 196 482.762V540.681C196 540.803 196.099 540.903 196.222 540.903H208.793C227.148 540.903 236.604 557.022 236.604 581.478V615.94C236.604 701.45 284.896 744.249 358.744 746Z" fill="white"/>
<path d="M664.027 745.779C664.027 745.903 664.132 746.003 664.256 746C738.106 744.249 786.952 701.45 786.952 615.94V581.478C786.952 557.022 796.964 540.903 814.763 540.903H826.778C826.901 540.903 827 540.803 827 540.681V482.762C827 482.639 826.901 482.54 826.778 482.54H814.763C796.964 482.54 786.952 465.865 786.952 441.964V408.058C786.952 322.549 738.106 280.304 664.258 278C664.133 277.996 664.027 278.096 664.027 278.221V336.146C664.027 336.264 664.122 336.361 664.239 336.368C702.478 338.659 721.874 360.326 721.874 398.053V436.406C721.874 484.83 738.228 504.381 766.62 511.778C766.843 511.837 766.843 512.162 766.62 512.22C738.229 519.65 721.874 540.819 721.874 587.593V625.945C721.874 663.671 702.479 685.892 664.242 687.633C664.124 687.639 664.027 687.736 664.027 687.855V745.779Z" fill="white"/>
</g>
<path d="M100 100H924H100ZM924 735C924 843.8 835.8 932 727 932H297C188.2 932 100 843.8 100 735C100 834.964 184.618 916 289 916H735C839.382 916 924 834.964 924 735ZM100 924V100V924ZM924 100V924V100Z" fill="black" fill-opacity="0.5" mask="url(#path-3-inside-1_230_292)"/>
<path d="M100 289C100 181.857 186.857 95 294 95H730C837.143 95 924 181.857 924 289C924 187.38 839.382 105 735 105H289C184.618 105 100 187.38 100 289ZM924 924H100H924ZM100 924V100V924ZM924 100V924V100Z" fill="white" fill-opacity="0.32" mask="url(#path-5-inside-2_230_292)"/>
<defs>
<filter id="filter0_dddd_230_292" x="28" y="44" width="968" height="968" filterUnits="userSpaceOnUse" color-interpolation-filters="sRGB">
<feFlood flood-opacity="0" result="BackgroundImageFix"/>
<feColorMatrix in="SourceAlpha" type="matrix" values="0 0 0 0 0 0 0 0 0 0 0 0 0 0 0 0 0 0 127 0" result="hardAlpha"/>
<feMorphology radius="8" operator="dilate" in="SourceAlpha" result="effect1_dropShadow_230_292"/>
<feOffset dy="16"/>
<feGaussianBlur stdDeviation="32"/>
<feComposite in2="hardAlpha" operator="out"/>
<feColorMatrix type="matrix" values="0 0 0 0 0 0 0 0 0 0 0 0 0 0 0 0 0 0 0.32 0"/>
<feBlend mode="normal" in2="BackgroundImageFix" result="effect1_dropShadow_230_292"/>
<feColorMatrix in="SourceAlpha" type="matrix" values="0 0 0 0 0 0 0 0 0 0 0 0 0 0 0 0 0 0 127 0" result="hardAlpha"/>
<feOffset dy="4"/>
<feGaussianBlur stdDeviation="4"/>
<feComposite in2="hardAlpha" operator="out"/>
<feColorMatrix type="matrix" values="0 0 0 0 0 0 0 0 0 0 0 0 0 0 0 0 0 0 0.32 0"/>
<feBlend mode="normal" in2="effect1_dropShadow_230_292" result="effect2_dropShadow_230_292"/>
<feColorMatrix in="SourceAlpha" type="matrix" values="0 0 0 0 0 0 0 0 0 0 0 0 0 0 0 0 0 0 127 0" result="hardAlpha"/>
<feOffset dy="4"/>
<feGaussianBlur stdDeviation="8"/>
<feComposite in2="hardAlpha" operator="out"/>
<feColorMatrix type="matrix" values="0 0 0 0 0 0 0 0 0 0 0 0 0 0 0 0 0 0 0.16 0"/>
<feBlend mode="normal" in2="effect2_dropShadow_230_292" result="effect3_dropShadow_230_292"/>
<feColorMatrix in="SourceAlpha" type="matrix" values="0 0 0 0 0 0 0 0 0 0 0 0 0 0 0 0 0 0 127 0" result="hardAlpha"/>
<feOffset dy="8"/>
<feGaussianBlur stdDeviation="32"/>
<feComposite in2="hardAlpha" operator="out"/>
<feColorMatrix type="matrix" values="0 0 0 0 1 0 0 0 0 0.243137 0 0 0 0 0 0 0 0 0.32 0"/>
<feBlend mode="normal" in2="effect3_dropShadow_230_292" result="effect4_dropShadow_230_292"/>
<feBlend mode="normal" in="SourceGraphic" in2="effect4_dropShadow_230_292" result="shape"/>
</filter>
</defs>
</svg>
