<svg xmlns="http://www.w3.org/2000/svg" version="1.0" viewBox="0 0 256 256">
   <g clip-path="url(#clip0_1_5)">
      <path
         d="M149.178 185.03H141.574C121.976 185.03 106.089 200.917 106.089 220.515V234.455C106.089 246.353 115.735 256 127.634 256C139.532 256 149.178 246.353 149.178 234.455V185.03Z"
         fill="currentColor" />
      <path
         d="M75.6733 129.267C86.8721 129.267 95.9505 138.346 95.9505 149.545V192.634C95.9505 198.233 91.4112 202.772 85.8119 202.772C80.2126 202.772 75.6733 198.233 75.6733 192.634V129.267Z"
         fill="currentColor" />
      <path
         d="M63 116.594C74.1988 116.594 83.2772 125.672 83.2772 136.871V179.96C83.2772 185.56 78.738 190.099 73.1386 190.099C67.5392 190.099 63 185.56 63 179.96V116.594Z"
         fill="currentColor" />
      <path
         d="M88.3465 101.386C99.5454 101.386 108.624 110.465 108.624 121.663V164.752C108.624 170.352 104.084 174.891 98.4851 174.891C92.8858 174.891 88.3465 170.352 88.3465 164.752V101.386Z"
         fill="currentColor" />
      <path
         d="M121.4 7.93211C121.739 4.19235 119.018 0.316158 115.32 0.966272C85.5899 6.19209 63 32.1384 63 63.3663V174.891H177.059C185.458 174.891 192.267 168.082 192.267 159.683V63.3663C192.267 61.1102 189.899 59.6868 187.7 60.1909C185.877 60.6089 184.009 60.8248 182.129 60.8317C168.13 60.8317 156.782 49.4835 156.782 35.4851C156.791 34.4596 155.795 33.72 154.827 34.0594C152.201 34.9797 149.437 35.4631 146.644 35.4851C132.645 35.4851 121.297 24.137 121.297 10.1386C121.299 9.40064 121.334 8.66447 121.4 7.93211Z"
         fill="currentColor" />
   </g>
   <defs>
      <clipPath id="clip0_1_5">
         <rect width="256" height="256" fill="white" />
      </clipPath>
   </defs>
</svg>