<svg viewBox="0 0 101.2 112.9" xmlns="http://www.w3.org/2000/svg">
  <path fill="currentColor" d="M 92.701 38.935 C 91.981 42.927 90.459 46.731 88.227 50.118 C 91.016 55.436 92.217 61.42 91.724 67.364 L 78.462 67.364 C 79.294 62.353 78.105 57.214 75.148 53.076 C 70.197 45.938 61.319 42.647 52.911 44.833 C 51.038 45.334 49.251 46.119 47.616 47.161 L 37.664 53.504 C 37.169 53.819 36.628 54.056 36.062 54.208 C 33.529 54.864 30.855 53.872 29.364 51.721 C 28.461 50.456 28.106 48.88 28.378 47.35 C 28.648 45.849 29.537 44.532 30.827 43.72 L 56.91 27.097 C 57.405 26.782 57.946 26.545 58.512 26.393 C 61.044 25.736 63.718 26.728 65.208 28.878 C 66.004 30.006 66.377 31.38 66.26 32.756 L 66.17 33.724 L 67.14 34.018 C 70.807 35.124 74.258 36.849 77.343 39.118 L 78.679 40.098 L 79.17 38.6 C 79.433 37.803 79.642 36.989 79.794 36.164 C 80.696 31.086 79.515 25.858 76.517 21.662 C 71.566 14.524 62.687 11.233 54.28 13.419 C 52.405 13.92 50.618 14.706 48.98 15.748 L 22.899 32.371 C 18.614 35.065 15.663 39.44 14.769 44.422 C 13.866 49.5 15.047 54.728 18.046 58.925 C 22.997 66.062 31.875 69.353 40.283 67.167 C 42.156 66.667 43.942 65.882 45.579 64.842 L 55.532 58.497 C 56.027 58.182 56.566 57.945 57.132 57.793 C 59.665 57.136 62.339 58.129 63.83 60.279 C 64.732 61.545 65.088 63.12 64.818 64.651 C 64.547 66.151 63.657 67.469 62.367 68.282 L 36.284 84.903 C 35.789 85.219 35.248 85.456 34.681 85.608 C 32.149 86.265 29.476 85.273 27.986 83.123 C 27.188 81.995 26.816 80.621 26.934 79.244 L 27.024 78.277 L 26.054 77.983 C 22.388 76.877 18.937 75.153 15.851 72.885 L 14.515 71.904 L 14.024 73.401 C 13.76 74.198 13.552 75.012 13.4 75.837 C 12.497 80.915 13.679 86.143 16.677 90.34 C 21.628 97.477 30.507 100.768 38.914 98.582 C 40.789 98.081 42.576 97.296 44.214 96.253 L 55.724 88.918 L 55.724 104.471 L 51.731 107.016 C 36.882 116.478 16.342 112.068 5.94 97.182 C 0.955 90.203 -1.009 81.51 0.492 73.066 C 1.213 69.074 2.736 65.27 4.968 61.883 C 1.71 55.673 0.617 48.553 1.861 41.651 C 3.347 33.366 8.255 26.091 15.379 21.608 L 41.462 4.985 C 56.314 -4.478 76.854 -0.066 87.254 14.82 C 92.24 21.798 94.203 30.491 92.701 38.935 Z" style=""></path>
  <path fill="currentColor" d="M 73.564 106.884 L 84.404 106.884 L 84.404 96.044 L 95.244 96.044 L 95.244 85.204 L 84.404 85.204 L 84.404 74.364 L 73.564 74.364 L 73.564 85.204 L 62.724 85.204 L 62.724 96.044 L 73.564 96.044 L 73.564 106.884 Z" style="stroke-width: 5px; paint-order: stroke; stroke-linecap: round; stroke-linejoin: round;"></path>
</svg>