<svg viewBox="0 0 32 32" fill="none" xmlns="http://www.w3.org/2000/svg">
	<path fill-rule="evenodd" clip-rule="evenodd"
		d="M21.8123 14.0777C22.152 13.44 22.391 12.7522 22.5196 12.0387C22.6923 11.0683 22.6694 10.0732 22.4523 9.11177C22.2352 8.15035 21.8283 7.24199 21.2553 6.44C18.8416 2.98418 14.0728 1.96043 10.6257 4.15743L4.56985 8.01625C3.75204 8.53094 3.05061 9.2106 2.5104 10.0118C1.97019 10.813 1.60307 11.718 1.43252 12.6692C1.14358 14.2716 1.39748 15.9246 2.15402 17.3665C1.63547 18.1525 1.28168 19.0355 1.11403 19.9621C0.941724 20.9324 0.964893 21.9273 1.18217 22.8885C1.39945 23.8497 1.80647 24.7579 2.37936 25.5597C4.7941 29.0155 9.56184 30.0393 13.009 27.8434L14.7955 26.705C14.3611 25.7444 14.0904 24.694 14.019 23.5892L11.2638 25.3452C10.8839 25.5871 10.4692 25.7694 10.0342 25.8858C9.08125 26.1334 8.0753 26.0826 7.15217 25.7403C6.22904 25.3979 5.43319 24.7806 4.8721 23.9715C4.5275 23.4894 4.28263 22.9434 4.15186 22.3654C4.02108 21.7874 4.00703 21.1891 4.11052 20.6056C4.1458 20.414 4.19431 20.2251 4.25568 20.0401L4.36943 19.6924L4.68035 19.9199C5.39668 20.4461 6.19756 20.8462 7.04851 21.1029L7.27384 21.1711L7.25218 21.3965C7.22512 21.7157 7.31185 22.0342 7.49701 22.2956C7.66585 22.5395 7.90547 22.7256 8.18348 22.8288C8.4615 22.9321 8.76452 22.9475 9.05159 22.873C9.18301 22.8381 9.30832 22.7833 9.42317 22.7105L14.8005 19.2841C15.1175 18.5858 15.521 17.9351 15.9974 17.3459C15.9554 17.2206 15.895 17.1019 15.8181 16.9938C15.6491 16.7501 15.4095 16.5641 15.1315 16.4608C14.8535 16.3576 14.5506 16.3421 14.2635 16.4164C14.1321 16.4513 14.0068 16.5061 13.8919 16.5789L11.5812 18.0522C11.2013 18.294 10.7866 18.4763 10.3516 18.5928C9.39878 18.8405 8.3929 18.7899 7.46978 18.4478C6.54666 18.1056 5.75075 17.4885 5.18952 16.6796C4.84491 16.1974 4.60012 15.6511 4.46953 15.0729C4.33893 14.4947 4.32516 13.8962 4.42902 13.3127C4.5317 12.7408 4.75257 12.1966 5.07752 11.715C5.40247 11.2334 5.82435 10.8248 6.31618 10.5155L12.3709 6.65559C12.7508 6.41369 13.1654 6.23138 13.6005 6.115C14.5534 5.86741 15.5594 5.9182 16.4825 6.26053C17.4056 6.60285 18.2015 7.22022 18.7626 8.02925C19.1072 8.51135 19.352 9.05741 19.4828 9.6354C19.6136 10.2134 19.6276 10.8117 19.5241 11.3952C19.4887 11.5867 19.4402 11.7757 19.379 11.9607L19.2652 12.3084L18.9554 12.0809C18.2389 11.5541 17.4376 11.1536 16.5862 10.8968L16.3608 10.8286L16.3825 10.6043C16.4096 10.2848 16.3229 9.96589 16.1377 9.70408C15.9687 9.46045 15.729 9.27454 15.451 9.17148C15.173 9.06841 14.87 9.05315 14.5831 9.12775C14.4517 9.16265 14.3263 9.21745 14.2115 9.29025L8.15567 13.1491C8.00768 13.2424 7.88076 13.3655 7.78302 13.5107C7.68528 13.6558 7.61886 13.8197 7.58801 13.9919C7.55669 14.1678 7.56078 14.3482 7.60003 14.5225C7.63928 14.6968 7.7129 14.8615 7.81659 15.007C7.98554 15.2507 8.22516 15.4367 8.50315 15.54C8.78113 15.6432 9.0841 15.6587 9.37117 15.5844C9.50301 15.5492 9.62868 15.494 9.74384 15.4208L12.0535 13.9475C12.4334 13.7059 12.8481 13.5239 13.2831 13.408C14.2359 13.1603 15.2418 13.2109 16.1649 13.553C17.065 13.8866 17.8442 14.4817 18.4028 15.2611C19.4258 14.6521 20.5797 14.2402 21.8123 14.0777Z"
		fill="black" />
	<path
		d="M21.75 24.25V27.5C21.75 27.8384 21.87 28.1456 22.1123 28.3874C22.3542 28.6299 22.6615 28.75 23 28.75C23.3387 28.75 23.6461 28.6298 23.8883 28.3876C24.1304 28.1455 24.25 27.8382 24.25 27.5V24.25H27.5C27.8384 24.25 28.1456 24.13 28.3874 23.8877C28.6299 23.6458 28.75 23.3385 28.75 23C28.75 22.6613 28.6298 22.3539 28.3876 22.1117C28.1455 21.8696 27.8382 21.75 27.5 21.75H24.25V18.5C24.25 18.1619 24.1304 17.8547 23.8889 17.6123L23.8877 17.6111C23.6453 17.3696 23.3381 17.25 23 17.25C22.6618 17.25 22.3545 17.3696 22.1124 17.6117C21.8702 17.8539 21.75 18.1613 21.75 18.5V21.75H18.5C18.1619 21.75 17.8547 21.8696 17.6123 22.1111L17.6111 22.1123C17.3696 22.3547 17.25 22.6619 17.25 23C17.25 23.3382 17.3696 23.6455 17.6117 23.8876C17.8539 24.1298 18.1613 24.25 18.5 24.25H21.75Z"
		fill="black" stroke="black" />
</svg>