<svg xmlns="http://www.w3.org/2000/svg" viewBox="0 0 99.2 112.9"><path fill="currentColor" d="M92.701 38.935a30 30 0 0 1-4.474 11.183 31.521 31.521 0 0 1 3.497 17.246H78.462a19.172 19.172 0 0 0-3.314-14.288 20.717 20.717 0 0 0-22.237-8.243 18.98 18.98 0 0 0-5.295 2.328l-9.952 6.343a5.774 5.774 0 0 1-1.602.704 6.245 6.245 0 0 1-6.698-2.487 5.782 5.782 0 0 1-.986-4.371 5.423 5.423 0 0 1 2.449-3.63L56.91 27.097a5.774 5.774 0 0 1 1.602-.704 6.24 6.24 0 0 1 6.696 2.485 5.866 5.866 0 0 1 1.052 3.878l-.09.968.97.294a33.593 33.593 0 0 1 10.203 5.1l1.336.98.491-1.498c.263-.797.472-1.611.624-2.436a19.177 19.177 0 0 0-3.277-14.502 20.718 20.718 0 0 0-22.237-8.243 19.025 19.025 0 0 0-5.3 2.329L22.899 32.371a17.987 17.987 0 0 0-8.13 12.051 19.172 19.172 0 0 0 3.277 14.503 20.718 20.718 0 0 0 22.237 8.242 19.033 19.033 0 0 0 5.296-2.325l9.953-6.345a5.762 5.762 0 0 1 1.6-.704 6.244 6.244 0 0 1 6.698 2.486 5.799 5.799 0 0 1 .988 4.372 5.436 5.436 0 0 1-2.451 3.631L36.284 84.903a5.74 5.74 0 0 1-1.603.705 6.239 6.239 0 0 1-6.695-2.485 5.85 5.85 0 0 1-1.052-3.879l.09-.967-.97-.294a33.633 33.633 0 0 1-10.203-5.098l-1.336-.981-.491 1.497a18.28 18.28 0 0 0-.624 2.436 19.176 19.176 0 0 0 3.277 14.503 20.719 20.719 0 0 0 22.237 8.242 18.996 18.996 0 0 0 5.3-2.329l11.51-7.335v15.553l-3.993 2.545c-14.849 9.462-35.389 5.052-45.791-9.834A31.89 31.89 0 0 1 .492 73.066a30.02 30.02 0 0 1 4.476-11.183 31.516 31.516 0 0 1-3.107-20.232 29.924 29.924 0 0 1 13.518-20.043L41.462 4.985C56.314-4.478 76.854-.066 87.254 14.82a31.877 31.877 0 0 1 5.447 24.115Z"/><path fill="currentColor" d="M78.964 83.809a4.747 4.747 0 1 0 0-9.495 4.747 4.747 0 0 0 0 9.495m0 5.601c-3.734-3.465-8.702-5.601-14.24-5.601v17.405c5.538 0 10.506 2.136 14.24 5.601 3.735-3.465 8.703-5.601 14.241-5.601V83.809c-5.538 0-10.506 2.136-14.241 5.601Z"/></svg>