<svg xmlns="http://www.w3.org/2000/svg" version="1.0" viewBox="0 0 256 256">
   <path fill="currentColor"
      d="M96 19.5c-18.8 7.4-31.6 13-32 13.9-.3.8-.5 19.3-.4 41l.1 39.4-31.6 12.3L.5 138.5v84.9l11 4.4c6.1 2.4 20.3 7.9 31.7 12.4l20.6 8 12.4-4.7c6.8-2.6 13.7-5.3 15.3-6 1.7-.7 5.7-2.3 9-3.5 3.3-1.3 7.4-2.8 9-3.5 1.7-.7 6.4-2.6 10.6-4.2l7.5-3 31.5 12.3c17.6 7 32.3 12.2 33.4 11.9 1.1-.2 15.6-5.7 32.2-12.2l30.3-11.8v-85l-30.7-11.9c-17-6.6-31.3-12.3-31.8-12.7-.7-.5-1-15-1-40.9s-.3-40.4-1-40.9c-.8-.6-57.6-23.2-62-24.6-.5-.2-15.2 5.2-32.5 12zm2.1 32.1 24.7 9.6v70.6l-2.2-.7c-1.2-.3-12.6-4.7-25.4-9.6l-23.2-9V77.2c0-19.3.3-35.2.8-35.2.4 0 11.8 4.3 25.3 9.6zm85.4 25.6v35.2l-20.5 7.9c-11.3 4.3-22.5 8.8-24.9 9.8-2.4 1.1-4.5 1.8-4.8 1.6-.3-.4-.5-31.9-.3-62.4v-8.1l17.3-6.8c9.4-3.7 20.4-8 24.2-9.5 3.9-1.6 7.5-2.9 8-2.9.7 0 1 12.1 1 35.2zm-92 52.4c12.1 4.8 22.3 9 22.7 9.3.8.7-50.5 21.1-52.7 21.1-.6 0-11.4-4-24-8.9l-22.9-8.9 4-1.7c2.1-.9 5.7-2.3 7.9-3.2 2.2-.8 4.9-1.9 6-2.4 4.8-2.1 35.1-13.8 36-13.8.5-.1 10.9 3.8 23 8.5zm112.5-2.1c9.1 3.5 17.9 7 19.5 7.6 1.7.7 3.2 1.3 3.5 1.4 1.2.4 4.8 1.9 9 3.7l4.5 2-20 7.9c-11 4.4-21.6 8.4-23.5 9-3.3 1-5.3.4-28.5-8.6-13.8-5.4-25.9-10.1-27-10.5-1.4-.5 4.1-3.1 21-9.8 12.7-5 23.4-9.1 24-9.1.5-.1 8.4 2.8 17.5 6.4zM122.3 216c-.9.8-50.1 19.8-52.2 20.2-1.3.3-1.5-4.6-1.5-33-.1-21.5.2-33.6.9-34 .5-.3 12.7-5.2 27-10.8l26-10.1.3 33.5c.1 18.5-.1 33.9-.5 34.2zm64.5-12.9c0 18.7-.1 33.9-.2 33.9s-12.3-4.7-27.1-10.5-26.9-10.5-27-10.5c-.3 0-.2-66.5.1-67.1.2-.4 12.5 4.1 27.3 9.8l26.9 10.5v33.9z" />
</svg>