<svg width="32" height="32" viewBox="0 0 32 32" fill="none" xmlns="http://www.w3.org/2000/svg">
	<g clip-path="url(#clip0_43_358)">
		<path
			d="M5 32H27C29.7614 32 32 29.7614 32 27L32 5C32 2.23858 29.7614 0 27 0L5 0C2.23858 0 0 2.23858 0 5V27C0 29.7614 2.23858 32 5 32Z"
			fill="#FF531A" />
		<path fill-rule="evenodd" clip-rule="evenodd"
			d="M7.23273 27.4613C5.9386 26.0266 5.85491 23.872 7.03385 22.3413L8.94474 19.8602L7.2672 19.4012C5.73135 18.981 4.59102 17.6898 4.36381 16.1138C4.1366 14.5378 4.86579 12.9771 6.22039 12.1402L19.6944 3.81516C21.338 2.79962 23.4727 3.10408 24.7669 4.53864C26.0611 5.9732 26.1449 8.1278 24.9661 9.65858L23.0546 12.1407L24.7326 12.5999C26.2684 13.0201 27.4088 14.3113 27.636 15.8874C27.8631 17.4634 27.1339 19.0241 25.7792 19.861L12.3052 28.185C10.6615 29.2005 8.52685 28.8959 7.23273 27.4613ZM16.2469 14.425L21.7969 7.21804L8.32288 15.543L15.7529 17.576L10.2029 24.782L23.6769 16.458L16.2469 14.425Z"
			fill="white" />
	</g>
	<defs>
		<clipPath id="clip0_43_358">
			<rect width="32" height="32" fill="white" />
		</clipPath>
	</defs>
</svg>