<svg width="47" height="35" viewBox="0 0 47 35" fill="none" xmlns="http://www.w3.org/2000/svg">
  <path
    d="M30.3989 3.3335C30.537 3.3335 30.6489 3.44542 30.6489 3.5835V5.84824C30.6489 5.98631 30.537 6.09824 30.3989 6.09824H29.5166C29.3785 6.09824 29.2666 6.21017 29.2666 6.34824V25.4515C29.2666 28.5065 26.7921 30.981 23.7371 30.981C20.682 30.981 18.2076 28.5065 18.2076 25.4515V6.34824C18.2076 6.21017 18.0956 6.09824 17.9576 6.09824H17.0752C16.9371 6.09824 16.8252 5.98631 16.8252 5.84824V3.5835C16.8252 3.44542 16.9371 3.3335 17.0752 3.3335H30.3989ZM26.5018 14.6425C26.5018 14.5044 26.3899 14.3925 26.2518 14.3925H21.2223C21.0842 14.3925 20.9723 14.5044 20.9723 14.6425V25.4515C20.9723 26.1847 21.2633 26.888 21.7824 27.4064C22.3008 27.9249 23.0037 28.2162 23.7371 28.2162C24.4704 28.2162 25.1733 27.9249 25.6917 27.4064C26.2108 26.888 26.5018 26.1847 26.5018 25.4515V14.6425ZM25.1194 21.3043C25.4858 21.3043 25.8376 21.45 26.0968 21.7092C26.356 21.9685 26.5018 22.3201 26.5018 22.6867C26.5018 23.0533 26.356 23.4049 26.0968 23.6642C25.8376 23.9235 25.4858 24.0691 25.1194 24.0691C24.7531 24.0691 24.4013 23.9235 24.1421 23.6642C23.8829 23.4049 23.7371 23.0533 23.7371 22.6867C23.7371 22.3201 23.8829 21.9685 24.1421 21.7092C24.4013 21.45 24.7531 21.3043 25.1194 21.3043ZM22.3547 17.1572C22.721 17.1572 23.0728 17.3029 23.332 17.5621C23.5912 17.8214 23.7371 18.173 23.7371 18.5396C23.7371 18.9062 23.5912 19.2578 23.332 19.5171C23.0728 19.7763 22.721 19.922 22.3547 19.922C21.9884 19.922 21.6365 19.7763 21.3773 19.5171C21.1182 19.2578 20.9723 18.9062 20.9723 18.5396C20.9723 18.173 21.1182 17.8214 21.3773 17.5621C21.6365 17.3029 21.9884 17.1572 22.3547 17.1572ZM26.5018 6.34824C26.5018 6.21017 26.3899 6.09824 26.2518 6.09824H21.2223C21.0842 6.09824 20.9723 6.21017 20.9723 6.34824V11.3777C20.9723 11.5158 21.0842 11.6277 21.2223 11.6277H26.2518C26.3899 11.6277 26.5018 11.5158 26.5018 11.3777V6.34824Z"
    fill="#FF531A" />
  <path
    d="M12.4267 34.1189C12.5668 34.1246 12.6835 34.0116 12.6835 33.8713V30.134C12.6835 30.0001 12.5778 29.8905 12.4443 29.8803C9.82363 29.6789 8.53172 28.0816 8.53172 25.4203V22.639C8.53172 19.758 7.67669 18.2165 6.15835 17.4873C5.9243 17.3749 5.92424 16.9388 6.15894 16.8278C7.65375 16.1206 8.53172 14.6483 8.53172 11.675V8.89371C8.53172 6.23124 9.82481 4.67171 12.4479 4.43676C12.5799 4.42494 12.6835 4.31596 12.6835 4.18351V0.444644C12.6835 0.303628 12.5657 0.190335 12.4248 0.197116C7.20991 0.448186 3.81559 3.51213 3.81559 9.61927V12.0781C3.81559 13.8114 3.13034 15.0206 1.80015 15.0206H1.12305C0.984975 15.0206 0.873047 15.1326 0.873047 15.2706V19.0031C0.873047 19.1411 0.984976 19.2531 1.12305 19.2531H1.80015C3.13034 19.2531 3.81559 20.422 3.81559 22.1956V24.6948C3.81559 30.8026 7.21071 33.9056 12.4267 34.1189Z"
    fill="#FF531A" />
  <path
    d="M34.7905 33.8713C34.7905 34.0116 34.9072 34.1246 35.0473 34.1189C40.2646 33.9056 43.6987 30.8026 43.6987 24.6948V22.1956C43.6987 20.422 44.4243 19.2531 45.7142 19.2531H46.351C46.489 19.2531 46.601 19.1411 46.601 19.0031V15.2706C46.601 15.1326 46.489 15.0206 46.351 15.0206H45.7142C44.4243 15.0206 43.6987 13.8114 43.6987 12.0781V9.61927C43.6987 3.51211 40.2654 0.448163 35.0492 0.197113C34.9083 0.190334 34.7905 0.303628 34.7905 0.444644V4.18351C34.7905 4.31596 34.8941 4.42495 35.0261 4.43675C37.6514 4.67167 38.9826 6.23121 38.9826 8.89371V11.675C38.9826 14.6503 39.8334 16.1225 41.3446 16.8292C41.5804 16.9394 41.5815 17.3783 41.3472 17.4915C39.8343 18.2224 38.9826 19.7635 38.9826 22.639V25.4203C38.9826 28.0816 37.6527 29.6789 35.0297 29.8803C34.8962 29.8905 34.7905 30.0001 34.7905 30.134V33.8713Z"
    fill="#FF531A" />
</svg>