<svg width="64" height="65" viewBox="0 0 64 65" fill="none" xmlns="http://www.w3.org/2000/svg">
  <rect y="0.157227" width="64" height="64" rx="16" fill="#FF531A" />
  <path
    d="M39.2701 17.1182C39.4081 17.1182 39.5201 17.2301 39.5201 17.3682V19.8759C39.5201 20.014 39.4081 20.1259 39.2701 20.1259H38.2662C38.1281 20.1259 38.0162 20.2378 38.0162 20.3759V41.18C38.0162 44.5035 35.3243 47.1954 32.0008 47.1954C28.6772 47.1954 25.9853 44.5035 25.9853 41.18V20.3759C25.9853 20.2378 25.8734 20.1259 25.7353 20.1259H24.7314C24.5934 20.1259 24.4814 20.014 24.4814 19.8759V17.3682C24.4814 17.2301 24.5934 17.1182 24.7314 17.1182H39.2701ZM35.0085 29.3991C35.0085 29.261 34.8966 29.1491 34.7585 29.1491H29.243C29.105 29.1491 28.993 29.261 28.993 29.3991V41.18C28.993 41.9777 29.3096 42.7427 29.8743 43.3067C30.4382 43.8708 31.203 44.1877 32.0008 44.1877C32.7986 44.1877 33.5633 43.8708 34.1272 43.3067C34.6919 42.7427 35.0085 41.9777 35.0085 41.18V29.3991ZM33.5046 36.6684C33.9031 36.6684 34.2859 36.8268 34.5678 37.1089C34.8498 37.3909 35.0085 37.7734 35.0085 38.1722C35.0085 38.5711 34.8498 38.9536 34.5678 39.2356C34.2859 39.5177 33.9031 39.6761 33.5046 39.6761C33.1061 39.6761 32.7234 39.5177 32.4414 39.2356C32.1594 38.9536 32.0008 38.5711 32.0008 38.1722C32.0008 37.7734 32.1594 37.3909 32.4414 37.1089C32.7234 36.8268 33.1061 36.6684 33.5046 36.6684ZM30.4969 32.1568C30.8954 32.1568 31.2782 32.3152 31.5601 32.5973C31.8421 32.8793 32.0008 33.2618 32.0008 33.6606C32.0008 34.0595 31.8421 34.442 31.5601 34.724C31.2782 35.0061 30.8954 35.1645 30.4969 35.1645C30.0984 35.1645 29.7156 35.0061 29.4337 34.724C29.1517 34.442 28.993 34.0595 28.993 33.6606C28.993 33.2618 29.1517 32.8793 29.4337 32.5973C29.7156 32.3152 30.0984 32.1568 30.4969 32.1568ZM35.0085 20.3759C35.0085 20.2378 34.8966 20.1259 34.7585 20.1259H29.243C29.105 20.1259 28.993 20.2378 28.993 20.3759V25.8913C28.993 26.0294 29.105 26.1413 29.243 26.1413H34.7585C34.8966 26.1413 35.0085 26.0294 35.0085 25.8913V20.3759Z"
    fill="white" />
  <path
    d="M19.7184 50.6102C19.8586 50.6157 19.9754 50.5027 19.9754 50.3624V46.2531C19.9754 46.1192 19.8694 46.0096 19.7359 45.9997C16.871 45.7875 15.4587 44.0484 15.4587 41.1462V38.1205C15.4587 34.9368 14.499 33.2568 12.7981 32.4792C12.562 32.3712 12.5617 31.9417 12.7984 31.835C14.4726 31.0803 15.4587 29.4796 15.4587 26.1929V23.1672C15.4587 20.2638 16.8721 18.5661 19.7395 18.3167C19.8715 18.3053 19.9754 18.1962 19.9754 18.0638V13.9529C19.9754 13.8119 19.8574 13.6987 19.7165 13.7052C14.0305 13.9706 10.3281 17.3038 10.3281 23.9565V26.6314C10.3281 28.5171 9.58263 29.8326 8.13553 29.8326H7.37695C7.23888 29.8326 7.12695 29.9445 7.12695 30.0826V34.187C7.12695 34.3251 7.23888 34.437 7.37695 34.437H8.13553C9.58263 34.437 10.3281 35.7087 10.3281 37.6381V40.3569C10.3281 47.0103 14.0313 50.3861 19.7184 50.6102Z"
    fill="white" />
  <path
    d="M44.0252 50.3624C44.0252 50.5027 44.142 50.6157 44.2822 50.6102C49.9705 50.3861 53.7164 47.0103 53.7164 40.3569V37.6381C53.7164 35.7087 54.5057 34.437 55.9089 34.437H56.6236C56.7617 34.437 56.8736 34.3251 56.8736 34.187V30.0826C56.8736 29.9445 56.7617 29.8326 56.6236 29.8326H55.9089C54.5057 29.8326 53.7164 28.5171 53.7164 26.6314V23.9565C53.7164 17.3038 49.9713 13.9706 44.284 13.7052C44.1432 13.6987 44.0252 13.8119 44.0252 13.9529V18.0638C44.0252 18.1962 44.1291 18.3053 44.2611 18.3167C47.1307 18.566 48.5857 20.2638 48.5857 23.1672V26.1929C48.5857 29.4817 49.5413 31.0824 51.2352 31.8365C51.473 31.9423 51.474 32.3745 51.2375 32.4832C49.5422 33.2626 48.5857 34.9423 48.5857 38.1205V41.1462C48.5857 44.0484 47.1319 45.7875 44.2647 45.9997C44.1312 46.0096 44.0252 46.1192 44.0252 46.2531V50.3624Z"
    fill="white" />
</svg>