<svg width="32" height="32" viewBox="0 0 32 32" fill="none" xmlns="http://www.w3.org/2000/svg">
	<path fill-rule="evenodd" clip-rule="evenodd"
		d="M6.98659 28.2894C6.016 27.2134 5.95323 25.5974 6.83744 24.4494L10.6048 19.5579L6.22176 18.3586C5.06988 18.0435 4.21463 17.0751 4.04422 15.8931C3.87381 14.7111 4.4207 13.5406 5.43666 12.9128L21.209 3.1678C22.4417 2.40614 24.0427 2.63448 25.0134 3.71041C25.984 4.78633 26.0469 6.40227 25.1628 7.55036L21.395 12.4431L25.7783 13.6424C26.9302 13.9576 27.7855 14.926 27.9559 16.1081C28.1262 17.2901 27.5793 18.4606 26.5633 19.0883L10.7909 28.8322C9.55814 29.5938 7.95718 29.3654 6.98659 28.2894ZM16.2892 14.1563L22.7859 5.71995L7.01352 15.465L15.7109 17.8448L9.2142 26.28L24.9865 16.5361L16.2892 14.1563Z"
		fill="#FF531A" />
</svg>