<svg width="32" height="32" viewBox="0 0 32 32" fill="none" xmlns="http://www.w3.org/2000/svg">
	<path fill-rule="evenodd" clip-rule="evenodd"
		d="M7.23273 27.4611C5.9386 26.0265 5.85491 23.8719 7.03385 22.3412L8.94474 19.8601L7.2672 19.4011C5.73135 18.9809 4.59102 17.6897 4.36381 16.1137C4.1366 14.5377 4.86579 12.977 6.22039 12.14L19.6944 3.81504C21.338 2.7995 23.4727 3.10395 24.7669 4.53852C26.0611 5.97308 26.1449 8.12767 24.9661 9.65846L23.0546 12.1406L24.7326 12.5997C26.2684 13.02 27.4088 14.3112 27.636 15.8872C27.8631 17.4633 27.1339 19.024 25.7792 19.8609L12.3052 28.1849C10.6615 29.2004 8.52685 28.8958 7.23273 27.4611ZM16.2469 14.4249L21.7969 7.21791L8.32288 15.5429L15.7529 17.5759L10.2029 24.7819L23.6769 16.4579L16.2469 14.4249Z"
		fill="#FF531A" />
</svg>