<svg width="24" height="24" viewBox="0 0 24 24" fill="none" xmlns="http://www.w3.org/2000/svg">
<path fill-rule="evenodd" clip-rule="evenodd" d="M5 5C4.73478 5 4.48043 5.10536 4.29289 5.29289C4.10536 5.48043 4 5.73478 4 6V10C4 10.2652 4.10536 10.5196 4.29289 10.7071C4.48043 10.8946 4.73478 11 5 11H19C19.2652 11 19.5196 10.8946 19.7071 10.7071C19.8946 10.5196 20 10.2652 20 10V6C20 5.73478 19.8946 5.48043 19.7071 5.29289C19.5196 5.10536 19.2652 5 19 5H5ZM21.2361 12C21.7267 11.4515 22 10.7398 22 10V6C22 5.20435 21.6839 4.44129 21.1213 3.87868C20.5587 3.31607 19.7957 3 19 3H5C4.20435 3 3.44129 3.31607 2.87868 3.87868C2.31607 4.44129 2 5.20435 2 6V10C2 10.7398 2.27328 11.4515 2.76393 12C2.27328 12.5485 2 13.2602 2 14V18C2 18.7956 2.31607 19.5587 2.87868 20.1213C3.44129 20.6839 4.20435 21 5 21H19C19.7957 21 20.5587 20.6839 21.1213 20.1213C21.6839 19.5587 22 18.7957 22 18V14C22 13.2602 21.7267 12.5485 21.2361 12ZM19 13H5C4.73478 13 4.48043 13.1054 4.29289 13.2929C4.10536 13.4804 4 13.7348 4 14V18C4 18.2652 4.10536 18.5196 4.29289 18.7071C4.48043 18.8946 4.73478 19 5 19H19C19.2652 19 19.5196 18.8946 19.7071 18.7071C19.8946 18.5196 20 18.2652 20 18V14C20 13.7348 19.8946 13.4804 19.7071 13.2929C19.5196 13.1054 19.2652 13 19 13ZM16 8C16 7.44772 16.4477 7 17 7H17.01C17.5623 7 18.01 7.44772 18.01 8C18.01 8.55228 17.5623 9 17.01 9H17C16.4477 9 16 8.55228 16 8ZM16 16C16 15.4477 16.4477 15 17 15H17.01C17.5623 15 18.01 15.4477 18.01 16C18.01 16.5523 17.5623 17 17.01 17H17C16.4477 17 16 16.5523 16 16Z" fill="#9465D0"/>
</svg>
