<svg width="24" height="24" viewBox="0 0 24 24" fill="none" xmlns="http://www.w3.org/2000/svg">
<path fill-rule="evenodd" clip-rule="evenodd" d="M2.58849 19.413C2.97982 19.8043 3.45049 20 4.00049 20H20.0005C20.5505 20 21.0215 19.8043 21.4135 19.413C21.8048 19.021 22.0005 18.55 22.0005 18V6C22.0005 5.45 21.8048 4.97933 21.4135 4.588C21.0215 4.196 20.5505 4 20.0005 4H4.00049C3.45049 4 2.97982 4.196 2.58849 4.588C2.19649 4.97933 2.00049 5.45 2.00049 6V18C2.00049 18.55 2.19649 19.021 2.58849 19.413ZM7 18H4.00049V8H7V18ZM8 18V8H20.0005V18H8ZM16.5 13C15.6716 13 15 13.6716 15 14.5C15 15.3284 15.6716 16 16.5 16C17.3284 16 18 15.3284 18 14.5C18 13.6716 17.3284 13 16.5 13Z" fill="#9465D0"/>
</svg>
