<svg width="24" height="24" viewBox="0 0 24 24" fill="none" xmlns="http://www.w3.org/2000/svg">
<path fill-rule="evenodd" clip-rule="evenodd" d="M4 20C3.45 20 2.97933 19.8043 2.588 19.413C2.196 19.021 2 18.55 2 18V6C2 5.45 2.196 4.97933 2.588 4.588C2.97933 4.196 3.45 4 4 4H20C20.55 4 21.021 4.196 21.413 4.588C21.8043 4.97933 22 5.45 22 6V11.4009C23.2412 12.7391 24 14.5309 24 16.5C24 20.6421 20.6421 24 16.5 24C13.622 24 11.1225 22.3789 9.86504 20H4ZM9.15003 18C9.05165 17.5153 9 17.0137 9 16.5C9 12.3579 12.3579 9 16.5 9C17.7641 9 18.9551 9.31273 20 9.86505V8H4V18H9.15003ZM15.492 17.6754L15.0471 12.9213C14.9954 12.4512 15.0808 12.031 15.3478 11.702C15.6233 11.3528 16.0321 11.2 16.5139 11.2C16.9824 11.2 17.3794 11.3562 17.6522 11.702C17.9192 12.031 18.0046 12.4512 17.9528 12.9213L17.5075 17.6806C17.4757 17.9665 17.3873 18.2248 17.2106 18.4174C17.0316 18.6234 16.7849 18.7124 16.5139 18.7124C16.2356 18.7124 15.9821 18.625 15.7933 18.4218C15.614 18.2287 15.5245 17.9687 15.4925 17.6806L15.492 17.6754ZM15.4071 21.9136C15.1326 21.6272 15.0038 21.2615 15.0038 20.8438C15.0038 20.433 15.1342 20.0746 15.4116 19.7971C15.7004 19.5084 16.0787 19.3755 16.5139 19.3755C16.9458 19.3755 17.3198 19.5068 17.5929 19.8017C17.8671 20.0785 17.9961 20.4353 17.9961 20.8438C17.9961 21.2604 17.868 21.6252 17.595 21.9113C17.3218 22.2078 16.9469 22.3399 16.5139 22.3399C16.0787 22.3399 15.7004 22.207 15.4116 21.9182L15.4071 21.9136Z" fill="#DC4A5C"/>
</svg>
