<svg width="24" height="24" viewBox="0 0 24 24" fill="none" xmlns="http://www.w3.org/2000/svg">
<path d="M4.00049 20C3.45049 20 2.97982 19.8043 2.58849 19.413C2.19649 19.021 2.00049 18.55 2.00049 18V6C2.00049 5.45 2.19649 4.97933 2.58849 4.588C2.97982 4.196 3.45049 4 4.00049 4H20.0005C20.5505 4 21.0215 4.196 21.4135 4.588C21.8048 4.97933 22.0005 5.45 22.0005 6V18C22.0005 18.55 21.8048 19.021 21.4135 19.413C21.0215 19.8043 20.5505 20 20.0005 20H4.00049ZM4.00049 18H7L8 8V18H20.0005V8H8L7 18V8H4.00049V18Z" fill="#9465D0"/>
</svg>
