<svg width="162" height="42" viewBox="0 0 164 44" xmlns="http://www.w3.org/2000/svg"
  xml:space="preserve"
  style="fill-rule:evenodd;clip-rule:evenodd;stroke-linejoin:round;stroke-miterlimit:2">
    <path style="fill:none" d="M.03.045h163.743v43.219H.03z"/>
    <clipPath id="a">
      <path d="M.03.045h163.743v43.219H.03z"/>
    </clipPath>
    <g clip-path="url(#a)">
      <path d="M163.773 8.116a8.074 8.074 0 0 0-8.071-8.071H8.101A8.075 8.075 0 0 0 .03 8.116v27.077a8.075 8.075 0 0 0 8.071 8.071h147.601a8.075 8.075 0 0 0 8.071-8.071V8.116Z" style="fill:#151515"/>
      <path d="M35.293 8.58c.131 0 .236.106.236.237v2.142c0 .13-.105.236-.236.236h-.835a.236.236 0 0 0-.236.236v18.067a5.228 5.228 0 0 1-5.229 5.229c-2.89 0-5.23-2.34-5.23-5.229V11.431a.236.236 0 0 0-.236-.236h-.835a.236.236 0 0 1-.236-.236V8.817c0-.131.106-.237.236-.237h12.601Zm-3.686 10.695a.236.236 0 0 0-.236-.236h-4.757a.236.236 0 0 0-.236.236v10.223a2.614 2.614 0 1 0 5.229 0V19.275ZM30.3 25.576a1.304 1.304 0 0 1 1.307 1.307 1.306 1.306 0 1 1-1.307-1.307Zm-2.615-3.922a1.306 1.306 0 1 1 .002 2.612 1.306 1.306 0 0 1-.002-2.612Zm3.922-10.223a.236.236 0 0 0-.236-.236h-4.757a.236.236 0 0 0-.236.236v4.757c0 .13.106.236.236.236h4.757a.236.236 0 0 0 .236-.236v-4.757ZM18.296 37.695a.235.235 0 0 0 .243-.235v-3.534c0-.127-.1-.23-.226-.24-2.479-.19-3.7-1.701-3.7-4.218v-2.63c0-2.725-.809-4.183-2.245-4.872-.221-.106-.221-.519.001-.624 1.413-.669 2.244-2.061 2.244-4.873v-2.63c0-2.518 1.223-3.993 3.703-4.215a.244.244 0 0 0 .223-.24V5.848a.234.234 0 0 0-.245-.234c-4.931.238-8.141 3.135-8.141 8.911v2.325c0 1.639-.648 2.783-1.906 2.783h-.641a.236.236 0 0 0-.236.236v3.53c0 .131.106.237.236.237h.641c1.258 0 1.906 1.105 1.906 2.783v2.363c0 5.776 3.21 8.711 8.143 8.913Zm21.15-.235c0 .133.11.24.243.235 4.934-.202 8.182-3.137 8.182-8.913v-2.363c0-1.678.686-2.783 1.906-2.783h.602a.237.237 0 0 0 .237-.237v-3.53a.237.237 0 0 0-.237-.236h-.602c-1.22 0-1.906-1.144-1.906-2.783v-2.325c0-5.776-3.247-8.673-8.18-8.911a.235.235 0 0 0-.245.234v3.536c0 .125.098.229.223.24 2.483.222 3.742 1.697 3.742 4.215v2.63c0 2.814.804 4.206 2.233 4.874.223.105.225.52.003.627-1.431.691-2.236 2.148-2.236 4.868v2.63c0 2.517-1.258 4.028-3.739 4.218a.243.243 0 0 0-.226.24v3.534Z" style="fill:#ff5319;fill-rule:nonzero"/>
      <path d="M60.623 10.996c0 2.185 1.307 3.752 3.384 3.752 2.088 0 3.395-1.567 3.395-3.752 0-2.174-1.307-3.73-3.395-3.73-2.077 0-3.384 1.556-3.384 3.73Zm1.037 0c0-1.86 1.038-2.877 2.347-2.877 1.32 0 2.358 1.017 2.358 2.877 0 1.871-1.038 2.899-2.358 2.899-1.309 0-2.347-1.028-2.347-2.899Zm7.041-1.74v7.103h.907v-2.551c.325.573.898.94 1.742.94 1.223 0 2.303-1.026 2.303-2.789 0-1.775-1.08-2.79-2.303-2.79-.844 0-1.417.367-1.742.929l-.248-.842h-.659Zm.886 2.703c0-1.277.606-2.013 1.525-2.013.92 0 1.526.736 1.526 2.013 0 1.276-.606 2.012-1.526 2.012-.919 0-1.525-.736-1.525-2.012Zm7.516 2.789c1.007 0 1.742-.443 2.131-1.069l-.876-.26c-.248.324-.649.53-1.255.53-.66 0-1.612-.411-1.655-1.764h4.131c.108-1.535-.788-3.016-2.497-3.016-1.472 0-2.606 1.08-2.606 2.779 0 1.579.94 2.8 2.627 2.8Zm-.021-4.802c.952 0 1.525.758 1.536 1.516h-3.159c.086-1.083.811-1.516 1.623-1.516Zm3.569-.69v5.362h.907V11.71c0-1.147.541-1.764 1.418-1.764 1.038 0 1.179.725 1.179 1.547v3.125h.907v-3.396c0-1.222-.475-2.053-1.773-2.053-.908 0-1.428.389-1.731.896l-.237-.809h-.67Zm8.663 0v.723h.746v4.639h.907V9.256h-1.653Zm1.199-1.018a.676.676 0 1 0-.67-.681c0 .378.303.681.67.681Zm2.077 1.018v5.362h.907V11.71c0-1.147.541-1.764 1.418-1.764 1.039 0 1.179.725 1.179 1.547v3.125h.907v-3.396c0-1.222-.475-2.053-1.772-2.053-.909 0-1.429.389-1.732.896l-.237-.809h-.67ZM60.623 32.055c.749 2.314 3.127 3.385 5.486 3.385 2.81 0 5.573-1.499 5.573-4.157 0-3.109-2.677-3.838-5.165-4.374-1.952-.408-3.689-.772-3.689-2.38 0-1.501 1.523-2.23 3.088-2.23 1.309 0 2.66.514 3.217 1.522l1.842-.536c-.899-1.843-2.957-2.677-4.973-2.677-2.638 0-5.251 1.412-5.251 3.835 0 3.152 2.935 3.795 5.144 4.267 2.724.557 3.667 1.201 3.667 2.487 0 1.715-1.651 2.552-3.367 2.552-1.565 0-3.217-.708-3.709-2.252l-1.863.558Zm15.712 3.127H78.2l3.793-10.63h-1.95l-2.765 8.275-2.786-8.275h-1.95l3.793 10.63Zm11.683.258c1.995 0 3.452-.878 4.223-2.12l-1.735-.515c-.493.643-1.287 1.051-2.488 1.051-1.308 0-3.195-.815-3.281-3.497h8.189c.214-3.043-1.563-5.978-4.951-5.978-2.916 0-5.165 2.141-5.165 5.507 0 3.131 1.863 5.552 5.208 5.552Zm-.043-9.519c1.888 0 3.024 1.502 3.046 3.004h-6.263c.172-2.145 1.609-3.004 3.217-3.004Zm7.076 6.604c0 2.208.471 2.657 2.505 2.657h.794v-1.583h-.408c-1.007 0-1.093-.279-1.093-1.375V20.865h-1.798v11.66Zm4.052-7.973v1.434h1.8v6.54c0 2.207.471 2.656 2.506 2.656h1.35v-1.583h-.964c-1.029 0-1.094-.279-1.094-1.373v-6.24h2.058v-1.434h-2.058v-2.679h-1.798v2.679h-1.8Zm12.539 10.888c1.994 0 3.452-.878 4.223-2.12l-1.735-.515c-.494.643-1.287 1.051-2.488 1.051-1.308 0-3.196-.815-3.281-3.497h8.189c.214-3.043-1.563-5.978-4.951-5.978-2.917 0-5.165 2.141-5.165 5.507 0 3.131 1.862 5.552 5.208 5.552Zm-.043-9.519c1.887 0 3.024 1.502 3.045 3.004h-6.262c.172-2.145 1.609-3.004 3.217-3.004Zm7.204 9.261h9.709v-1.733h-7.696V20.865h-2.013v14.317Zm14.404.258c1.866 0 2.982-.642 3.625-1.713l.428 1.455h1.649c-.193-1.007-.343-2.229-.365-4.008l-.021-2.487c-.022-2.98-1.285-4.306-4.222-4.306-1.909 0-3.495.941-4.073 2.569l1.735.515c.236-1.029 1.073-1.651 2.36-1.651 1.715 0 2.466 1.008 2.402 2.809-4.354.493-7.182 1.221-7.182 3.751 0 1.953 1.649 3.066 3.664 3.066Zm3.668-5.38v.665c0 2.509-1.609 3.281-3.282 3.281-1.287 0-2.059-.665-2.059-1.673 0-1.458 2.081-1.93 5.341-2.273Zm4.63-9.195v14.317h1.327l.471-1.607c.644 1.137 1.78 1.865 3.453 1.865 2.424 0 4.565-2.013 4.565-5.53 0-3.495-2.141-5.529-4.565-5.529-1.673 0-2.809.727-3.453 1.841v-5.357h-1.798Zm4.779 5.056c1.823 0 3.024 1.459 3.024 3.989 0 2.531-1.201 3.989-3.024 3.989s-3.024-1.458-3.024-3.989c0-2.53 1.201-3.989 3.024-3.989Z" style="fill:#fff;fill-rule:nonzero"/>
    </g>
  </svg>
  