<svg width="162" height="25" viewBox="0 0 271 44" xmlns="http://www.w3.org/2000/svg"
  xml:space="preserve"
  style="fill-rule:evenodd;clip-rule:evenodd;stroke-linejoin:round;stroke-miterlimit:2">
    <path style="fill:none" d="M.199 0h270.507v43.219H.199z"/>
    <path d="M270.657 8.071A8.075 8.075 0 0 0 262.586 0H8.27A8.075 8.075 0 0 0 .199 8.071v27.077a8.075 8.075 0 0 0 8.071 8.071h254.316a8.075 8.075 0 0 0 8.071-8.071V8.071Z" style="fill:#ff5319"/>
    <path d="M35.462 8.535c.131 0 .236.106.236.237v2.142c0 .13-.105.236-.236.236h-.834a.237.237 0 0 0-.237.236v18.067a5.228 5.228 0 0 1-5.229 5.229 5.228 5.228 0 0 1-5.23-5.229V11.386a.236.236 0 0 0-.236-.236h-.834a.237.237 0 0 1-.237-.236V8.772c0-.131.106-.237.237-.237h12.6ZM31.776 19.23a.236.236 0 0 0-.236-.236h-4.756a.237.237 0 0 0-.237.236v10.223a2.614 2.614 0 1 0 5.229 0V19.23Zm-1.307 6.301c.347 0 .679.137.924.383a1.302 1.302 0 0 1 0 1.848 1.302 1.302 0 0 1-1.848 0 1.306 1.306 0 0 1 .924-2.231Zm-2.615-3.922a1.305 1.305 0 0 1 1.308 1.307 1.306 1.306 0 1 1-1.308-1.307Zm3.922-10.223a.236.236 0 0 0-.236-.236h-4.756a.237.237 0 0 0-.237.236v4.757c0 .13.106.236.237.236h4.756a.236.236 0 0 0 .236-.236v-4.757ZM18.465 37.65a.234.234 0 0 0 .243-.234v-3.535c0-.127-.1-.23-.226-.24-2.478-.19-3.7-1.701-3.7-4.218v-2.63c0-2.725-.809-4.183-2.245-4.872-.221-.106-.221-.519.001-.624 1.414-.669 2.244-2.061 2.244-4.873v-2.63c0-2.518 1.223-3.993 3.703-4.215a.243.243 0 0 0 .223-.24V5.803a.234.234 0 0 0-.244-.234c-4.932.238-8.142 3.135-8.142 8.911v2.325c0 1.639-.648 2.783-1.906 2.783h-.641a.236.236 0 0 0-.236.236v3.53c0 .131.106.237.236.237h.641c1.258 0 1.906 1.105 1.906 2.783v2.363c0 5.776 3.211 8.711 8.143 8.913Zm21.15-.234c0 .132.111.239.243.234 4.934-.202 8.182-3.137 8.182-8.913v-2.363c0-1.678.686-2.783 1.906-2.783h.602a.237.237 0 0 0 .237-.237v-3.53a.237.237 0 0 0-.237-.236h-.602c-1.22 0-1.906-1.144-1.906-2.783V14.48c0-5.776-3.247-8.673-8.18-8.911a.235.235 0 0 0-.245.234v3.536c0 .125.098.229.223.24 2.483.222 3.742 1.697 3.742 4.215v2.63c0 2.814.804 4.206 2.234 4.874.223.105.224.52.002.627-1.431.691-2.236 2.149-2.236 4.868v2.63c0 2.517-1.258 4.028-3.739 4.218a.243.243 0 0 0-.226.24v3.535Zm20.866-15.819c0 5.06 3.027 8.69 7.838 8.69 4.835 0 7.863-3.63 7.863-8.69 0-5.036-3.028-8.64-7.863-8.64-4.811 0-7.838 3.604-7.838 8.64Zm2.401 0c0-4.309 2.405-6.665 5.437-6.665 3.057 0 5.462 2.356 5.462 6.665 0 4.334-2.405 6.714-5.462 6.714-3.032 0-5.437-2.38-5.437-6.714Zm16.309-4.031v16.453h2.101v-5.908c.752 1.325 2.08 2.176 4.034 2.176 2.832 0 5.334-2.377 5.334-6.46 0-4.11-2.502-6.462-5.334-6.462-1.954 0-3.282.85-4.034 2.151l-.575-1.95h-1.526Zm2.051 6.261c0-2.958 1.403-4.662 3.533-4.662s3.533 1.704 3.533 4.661c0 2.956-1.403 4.66-3.533 4.66s-3.533-1.704-3.533-4.66v.001Zm17.409 6.46c2.331 0 4.034-1.026 4.934-2.478l-2.027-.601c-.576.752-1.503 1.228-2.907 1.228-1.528 0-3.733-.952-3.834-4.086h9.569c.25-3.555-1.826-6.985-5.785-6.985-3.408 0-6.035 2.502-6.035 6.435 0 3.659 2.176 6.487 6.085 6.487Zm-.05-11.122c2.205 0 3.533 1.755 3.558 3.51h-7.317c.201-2.507 1.88-3.51 3.759-3.51Zm8.267-1.599v12.42h2.101V23.25c0-2.657 1.253-4.085 3.283-4.085 2.406 0 2.732 1.679 2.732 3.582v7.239h2.101v-7.865c0-2.83-1.101-4.756-4.106-4.756-2.105 0-3.308.9-4.01 2.076l-.55-1.875h-1.551Zm20.063 0v1.675h1.729v10.745h2.1v-12.42h-3.829Zm2.779-2.358a1.57 1.57 0 0 0 1.576-1.576 1.565 1.565 0 0 0-3.127 0c0 .875.7 1.576 1.551 1.576Zm4.811 2.358v12.42h2.1V23.25c0-2.657 1.253-4.085 3.283-4.085 2.406 0 2.732 1.679 2.732 3.582v7.239h2.101v-7.865c0-2.83-1.101-4.756-4.106-4.756-2.105 0-3.308.9-4.01 2.076l-.55-1.875h-1.55Zm19.937 8.766c.876 2.704 3.655 3.955 6.411 3.955 3.282 0 6.511-1.751 6.511-4.857 0-3.633-3.128-4.485-6.035-5.111-2.28-.476-4.31-.902-4.31-2.781 0-1.754 1.779-2.606 3.608-2.606 1.529 0 3.107.602 3.759 1.779l2.152-.626c-1.051-2.153-3.455-3.128-5.81-3.128-3.083 0-6.135 1.65-6.135 4.481 0 3.683 3.428 4.434 6.009 4.985 3.183.652 4.285 1.403 4.285 2.907 0 2.004-1.929 2.981-3.934 2.981-1.829 0-3.759-.827-4.334-2.631l-2.177.652Zm18.359 3.654h2.178l4.432-12.42h-2.278l-3.231 9.668-3.255-9.668h-2.278l4.432 12.42Zm13.65.301c2.331 0 4.034-1.026 4.934-2.478l-2.027-.601c-.576.752-1.503 1.228-2.907 1.228-1.528 0-3.733-.952-3.834-4.086h9.569c.25-3.555-1.826-6.985-5.785-6.985-3.408 0-6.035 2.502-6.035 6.435 0 3.659 2.176 6.487 6.085 6.487Zm-.05-11.122c2.205 0 3.533 1.755 3.558 3.51h-7.316c.2-2.507 1.879-3.51 3.758-3.51Zm8.267 7.716c0 2.58.551 3.105 2.928 3.105h.927v-1.85h-.476c-1.178 0-1.278-.327-1.278-1.606V13.257h-2.101v13.624Zm4.734-9.315v1.675h2.104v7.642c0 2.578.551 3.103 2.928 3.103h1.578v-1.85h-1.127c-1.203 0-1.278-.326-1.278-1.604v-7.291h2.405v-1.675h-2.405v-3.131h-2.101v3.131h-2.104Zm14.652 12.721c2.33 0 4.033-1.026 4.933-2.478l-2.027-.601c-.576.752-1.503 1.228-2.906 1.228-1.529 0-3.734-.952-3.834-4.086h9.568c.25-3.555-1.826-6.985-5.785-6.985-3.407 0-6.034 2.502-6.034 6.435 0 3.659 2.176 6.487 6.085 6.487Zm-.051-11.122c2.206 0 3.534 1.755 3.559 3.51h-7.317c.2-2.507 1.879-3.51 3.758-3.51Zm8.418 10.821h11.343V27.96h-8.992V13.257h-2.351v16.729Zm16.83.301c2.18 0 3.483-.751 4.234-2.001l.501 1.7h1.926c-.225-1.177-.401-2.605-.426-4.684l-.025-2.905c-.025-3.482-1.5-5.032-4.932-5.032-2.231 0-4.084 1.1-4.759 3.003l2.027.601c.276-1.202 1.253-1.929 2.757-1.929 2.005 0 2.881 1.177 2.806 3.281-5.087.577-8.39 1.428-8.39 4.384 0 2.281 1.926 3.582 4.281 3.582Zm4.285-6.286v.777c0 2.931-1.88 3.833-3.834 3.833-1.504 0-2.406-.776-2.406-1.954 0-1.704 2.431-2.255 6.24-2.656Zm5.41-10.744v16.729h1.551l.55-1.879c.752 1.329 2.08 2.18 4.034 2.18 2.832 0 5.334-2.352 5.334-6.461 0-4.084-2.502-6.461-5.334-6.461-1.954 0-3.282.85-4.034 2.151v-6.259h-2.101Zm5.584 5.908c2.13 0 3.533 1.704 3.533 4.661 0 2.956-1.403 4.66-3.533 4.66s-3.533-1.704-3.533-4.66c0-2.957 1.403-4.661 3.533-4.661Z" style="fill:#fff;fill-rule:nonzero"/>
  </svg>
  