<svg width="162" height="42" viewBox="0 0 164 44" xmlns="http://www.w3.org/2000/svg"
  xml:space="preserve"
  style="fill-rule:evenodd;clip-rule:evenodd;stroke-linejoin:round;stroke-miterlimit:2">
    <path style="fill:none" d="M0 0h163.743v43.219H0z"/>
    <clipPath id="a">
      <path d="M0 0h163.743v43.219H0z"/>
    </clipPath>
    <g clip-path="url(#a)">
      <path d="M163.743 8.071A8.075 8.075 0 0 0 155.672 0H8.071A8.075 8.075 0 0 0 0 8.071v27.077a8.075 8.075 0 0 0 8.071 8.071h147.601a8.075 8.075 0 0 0 8.071-8.071V8.071Z" style="fill:#ff5319"/>
      <path d="M35.263 8.535c.13 0 .236.106.236.237v2.142c0 .13-.106.236-.236.236h-.835a.236.236 0 0 0-.236.236v18.067a5.228 5.228 0 0 1-5.23 5.229 5.228 5.228 0 0 1-5.229-5.229V11.386a.236.236 0 0 0-.236-.236h-.835a.236.236 0 0 1-.236-.236V8.772c0-.131.106-.237.236-.237h12.601ZM31.577 19.23a.236.236 0 0 0-.236-.236h-4.757a.236.236 0 0 0-.236.236v10.223a2.614 2.614 0 1 0 5.229 0V19.23Zm-1.307 6.301a1.304 1.304 0 0 1 1.307 1.307 1.306 1.306 0 1 1-1.307-1.307Zm-2.615-3.922a1.304 1.304 0 0 1 1.307 1.307 1.306 1.306 0 1 1-1.307-1.307Zm3.922-10.223a.236.236 0 0 0-.236-.236h-4.757a.236.236 0 0 0-.236.236v4.757c0 .13.106.236.236.236h4.757c.13 0 .236-.106.236-.236v-4.757ZM18.266 37.65a.235.235 0 0 0 .243-.234v-3.535c0-.127-.1-.23-.226-.24-2.479-.19-3.701-1.701-3.701-4.218v-2.63c0-2.725-.808-4.183-2.244-4.872-.221-.106-.222-.519 0-.624 1.414-.669 2.244-2.061 2.244-4.873v-2.63c0-2.518 1.223-3.993 3.704-4.215a.243.243 0 0 0 .223-.24V5.803a.235.235 0 0 0-.245-.234c-4.932.238-8.142 3.135-8.142 8.911v2.325c0 1.639-.648 2.783-1.906 2.783h-.64a.237.237 0 0 0-.237.236v3.53c0 .131.106.237.237.237h.64c1.258 0 1.906 1.105 1.906 2.783v2.363c0 5.776 3.211 8.711 8.144 8.913Zm21.15-.234c0 .132.11.239.243.234 4.934-.202 8.181-3.137 8.181-8.913v-2.363c0-1.678.687-2.783 1.907-2.783h.602c.13 0 .236-.106.236-.237v-3.53a.236.236 0 0 0-.236-.236h-.602c-1.22 0-1.907-1.144-1.907-2.783V14.48c0-5.776-3.246-8.673-8.18-8.911a.234.234 0 0 0-.244.234v3.536c0 .125.098.229.223.24 2.482.222 3.741 1.697 3.741 4.215v2.63c0 2.814.805 4.206 2.234 4.874.223.105.224.52.003.627-1.431.691-2.237 2.149-2.237 4.868v2.63c0 2.517-1.257 4.028-3.738 4.218a.243.243 0 0 0-.226.24v3.535Zm21.177-26.465c0 2.185 1.307 3.752 3.384 3.752 2.088 0 3.395-1.567 3.395-3.752 0-2.174-1.307-3.73-3.395-3.73-2.077 0-3.384 1.556-3.384 3.73Zm1.036 0c0-1.86 1.039-2.877 2.348-2.877 1.32 0 2.358 1.017 2.358 2.877 0 1.871-1.038 2.899-2.358 2.899-1.309 0-2.348-1.028-2.348-2.899Zm7.042-1.74v7.103h.907v-2.55c.325.572.898.939 1.742.939 1.222 0 2.303-1.026 2.303-2.789 0-1.775-1.081-2.79-2.303-2.79-.844 0-1.417.367-1.742.929l-.248-.842h-.659Zm.885 2.703c0-1.277.606-2.013 1.526-2.013.919 0 1.525.736 1.525 2.013 0 1.276-.606 2.012-1.525 2.012-.92 0-1.526-.736-1.526-2.012Zm7.517 2.789c1.006 0 1.742-.443 2.13-1.069l-.875-.26c-.249.324-.649.53-1.255.53-.66 0-1.612-.411-1.655-1.764h4.131c.108-1.535-.788-3.016-2.498-3.016-1.471 0-2.605 1.08-2.605 2.779 0 1.579.939 2.8 2.627 2.8Zm-.022-4.802c.953 0 1.526.758 1.537 1.516h-3.159c.086-1.083.811-1.516 1.622-1.516Zm3.57-.69v5.362h.907v-2.908c0-1.147.541-1.764 1.417-1.764 1.039 0 1.18.725 1.18 1.547v3.125h.907v-3.395c0-1.223-.475-2.054-1.773-2.054-.909 0-1.428.389-1.731.896l-.238-.809h-.669Zm8.662 0v.723h.746v4.639h.907V9.211h-1.653Zm1.2-1.018a.676.676 0 1 0-.67-.681c0 .378.303.681.67.681Zm2.077 1.018v5.362h.907v-2.908c0-1.147.541-1.764 1.417-1.764 1.039 0 1.18.725 1.18 1.547v3.125h.907v-3.395c0-1.223-.475-2.054-1.773-2.054-.909 0-1.428.389-1.731.896l-.238-.809h-.669ZM60.593 32.01c.749 2.314 3.127 3.385 5.486 3.385 2.809 0 5.572-1.499 5.572-4.157 0-3.109-2.677-3.838-5.164-4.374-1.952-.408-3.689-.772-3.689-2.38 0-1.501 1.523-2.23 3.088-2.23 1.308 0 2.659.514 3.217 1.522l1.842-.536c-.899-1.842-2.957-2.677-4.973-2.677-2.638 0-5.251 1.412-5.251 3.835 0 3.152 2.935 3.795 5.144 4.267 2.723.557 3.667 1.201 3.667 2.487 0 1.716-1.651 2.552-3.367 2.552-1.566 0-3.217-.708-3.71-2.252l-1.862.558Zm15.712 3.127h1.864l3.794-10.63h-1.951l-2.764 8.275-2.786-8.275h-1.95l3.793 10.63Zm11.683.258c1.994 0 3.452-.878 4.223-2.12l-1.735-.515c-.494.643-1.287 1.051-2.488 1.051-1.308 0-3.196-.815-3.281-3.497h8.189c.214-3.043-1.563-5.978-4.951-5.978-2.917 0-5.165 2.141-5.165 5.507 0 3.131 1.862 5.552 5.208 5.552Zm-.043-9.518c1.887 0 3.024 1.501 3.045 3.003h-6.262c.172-2.145 1.609-3.003 3.217-3.003Zm7.076 6.603c0 2.208.471 2.657 2.505 2.657h.793v-1.583h-.407c-1.008 0-1.093-.279-1.093-1.375V20.82h-1.798v11.66Zm4.051-7.973v1.434h1.801v6.54c0 2.207.471 2.656 2.505 2.656h1.351v-1.583h-.965c-1.029 0-1.093-.279-1.093-1.373v-6.24h2.058v-1.434h-2.058v-2.679h-1.798v2.679h-1.801Zm12.54 10.888c1.994 0 3.452-.878 4.222-2.12l-1.735-.515c-.493.643-1.286 1.051-2.487 1.051-1.309 0-3.196-.815-3.282-3.497h8.189c.215-3.043-1.562-5.978-4.95-5.978-2.917 0-5.165 2.141-5.165 5.507 0 3.131 1.862 5.552 5.208 5.552Zm-.043-9.518c1.887 0 3.024 1.501 3.045 3.003h-6.262c.171-2.145 1.608-3.003 3.217-3.003Zm7.204 9.26h9.708v-1.733h-7.696V20.82h-2.012v14.317Zm14.404.258c1.866 0 2.981-.642 3.624-1.713l.429 1.455h1.648c-.193-1.007-.343-2.229-.364-4.008l-.022-2.487c-.021-2.98-1.284-4.306-4.221-4.306-1.909 0-3.495.941-4.073 2.57l1.735.514c.236-1.029 1.072-1.651 2.359-1.651 1.716 0 2.467 1.008 2.402 2.809-4.354.493-7.181 1.222-7.181 3.751 0 1.953 1.648 3.066 3.664 3.066Zm3.667-5.38v.665c0 2.509-1.608 3.281-3.281 3.281-1.287 0-2.059-.665-2.059-1.673 0-1.458 2.08-1.93 5.34-2.273Zm4.631-9.195v14.317h1.327l.471-1.607c.643 1.137 1.78 1.865 3.453 1.865 2.423 0 4.564-2.013 4.564-5.53 0-3.495-2.141-5.529-4.564-5.529-1.673 0-2.81.727-3.453 1.841V20.82h-1.798Zm4.779 5.057c1.823 0 3.024 1.458 3.024 3.988 0 2.531-1.201 3.989-3.024 3.989s-3.024-1.458-3.024-3.989c0-2.53 1.201-3.988 3.024-3.988Z" style="fill:#fff;fill-rule:nonzero"/>
    </g>
  </svg>
  